<svg width="33" height="32" viewBox="0 0 33 32" fill="none" xmlns="http://www.w3.org/2000/svg">
<path d="M4.12134 8.51475C4.12134 7.86942 4.58134 7.34541 5.14934 7.34541H8.70267C9.408 7.32408 10.0307 6.81342 10.2707 6.05875L10.3107 5.92541L10.464 5.40408C10.5573 5.08408 10.6387 4.80408 10.7533 4.55475C11.204 3.56941 12.0387 2.88541 13.0027 2.71075C13.248 2.66675 13.5067 2.66675 13.8027 2.66675H18.44C18.7373 2.66675 18.996 2.66675 19.24 2.71075C20.204 2.88541 21.04 3.56941 21.4893 4.55475C21.604 4.80408 21.6853 5.08275 21.78 5.40408L21.932 5.92541L21.972 6.05875C22.212 6.81342 22.9587 7.32541 23.6653 7.34541H27.092C27.6613 7.34541 28.1213 7.86942 28.1213 8.51475C28.1213 9.16008 27.6613 9.68408 27.0933 9.68408H5.148C4.58134 9.68408 4.12134 9.16008 4.12134 8.51475Z" fill="#699BF7"/>
<path fill-rule="evenodd" clip-rule="evenodd" d="M12.688 15.3093C13.2386 15.2506 13.728 15.6733 13.7826 16.2519L14.4493 23.2693C14.504 23.8466 14.1026 24.3626 13.5546 24.4213C13.0053 24.4786 12.5146 24.0573 12.46 23.4786L11.7933 16.4613C11.7386 15.8826 12.14 15.3666 12.688 15.3093ZM19.5546 15.3093C20.104 15.3666 20.5053 15.8826 20.4493 16.4613L19.7826 23.4786C19.7293 24.0573 19.2386 24.4786 18.6893 24.4213C18.1386 24.3626 17.7386 23.8479 17.7933 23.2693L18.46 16.2506C18.5146 15.6733 19.0053 15.2506 19.5533 15.3079" fill="#699BF7"/>
<path opacity="0.5" d="M15.5827 29.3332H16.66C20.3707 29.3332 22.2254 29.3332 23.4334 28.1519C24.6387 26.9706 24.7614 25.0332 25.008 21.1586L25.364 15.5746C25.4974 13.4719 25.564 12.4199 24.96 11.7546C24.3547 11.0879 23.3334 11.0879 21.2894 11.0879H10.9534C8.90935 11.0879 7.88668 11.0879 7.28268 11.7546C6.67735 12.4212 6.74402 13.4719 6.87868 15.5746L7.23469 21.1586C7.48135 25.0332 7.60402 26.9719 8.81069 28.1519C10.0174 29.3332 11.872 29.3332 15.5827 29.3332Z" fill="#699BF7"/>
</svg>
