<svg width="32" height="32" viewBox="0 0 32 32" fill="none" xmlns="http://www.w3.org/2000/svg">
<path d="M9.34265 16.0001C9.34265 15.7349 9.44801 15.4805 9.63554 15.293C9.82308 15.1055 10.0774 15.0001 10.3427 15.0001H15V10.3428C15 10.0776 15.1053 9.8232 15.2929 9.63567C15.4804 9.44813 15.7348 9.34277 16 9.34277C16.2652 9.34277 16.5196 9.44813 16.7071 9.63567C16.8946 9.8232 17 10.0776 17 10.3428V15.0001H21.6573C21.9225 15.0001 22.1769 15.1055 22.3644 15.293C22.552 15.4805 22.6573 15.7349 22.6573 16.0001C22.6573 16.2653 22.552 16.5197 22.3644 16.7072C22.1769 16.8947 21.9225 17.0001 21.6573 17.0001H17V21.6574C17 21.9227 16.8946 22.177 16.7071 22.3645C16.5196 22.5521 16.2652 22.6574 16 22.6574C15.7348 22.6574 15.4804 22.5521 15.2929 22.3645C15.1053 22.177 15 21.9227 15 21.6574V17.0001H10.3427C10.0774 17.0001 9.82308 16.8947 9.63554 16.7072C9.44801 16.5197 9.34265 16.2653 9.34265 16.0001Z" fill="#699BF7"/>
<path fill-rule="evenodd" clip-rule="evenodd" d="M9.75601 5.02522C13.906 4.56516 18.0941 4.56516 22.244 5.02522C24.68 5.29722 26.6467 7.21588 26.932 9.66522C27.4253 13.8746 27.4253 18.1266 26.932 22.3359C26.6453 24.7852 24.6787 26.7026 22.244 26.9759C18.0941 27.436 13.906 27.436 9.75601 26.9759C7.32001 26.7026 5.35335 24.7852 5.06801 22.3359C4.57572 18.1267 4.57572 13.8744 5.06801 9.66522C5.35335 7.21588 7.32135 5.29722 9.75601 5.02522ZM22.0227 7.01188C18.0198 6.5682 13.9802 6.5682 9.97735 7.01188C9.23634 7.09409 8.54468 7.42372 8.01412 7.94751C7.48355 8.4713 7.14507 9.15866 7.05335 9.89855C6.57914 13.9532 6.57914 18.0493 7.05335 22.1039C7.14535 22.8435 7.48396 23.5306 8.01449 24.0541C8.54503 24.5776 9.23654 24.9071 9.97735 24.9892C13.9467 25.4319 18.0533 25.4319 22.0227 24.9892C22.7633 24.9068 23.4544 24.5772 23.9847 24.0537C24.515 23.5302 24.8534 22.8433 24.9453 22.1039C25.4196 18.0493 25.4196 13.9532 24.9453 9.89855C24.8531 9.15934 24.5146 8.47275 23.9843 7.94951C23.4541 7.42628 22.7631 7.09692 22.0227 7.01455" fill="#699BF7"/>
</svg>
