<svg width="36" height="32" viewBox="0 0 36 32" fill="none" xmlns="http://www.w3.org/2000/svg">
<path d="M30.75 0H15.75C14.3581 0.00144384 13.0236 0.53827 12.0393 1.49269C11.0551 2.44711 10.5015 3.74116 10.5 5.09091V14.5455H24.8784L19.9397 9.75545C19.6703 9.48046 19.5223 9.11427 19.5273 8.73498C19.5323 8.35569 19.6899 7.99331 19.9665 7.72509C20.2431 7.45687 20.6168 7.30404 21.008 7.29918C21.3991 7.29432 21.7767 7.43783 22.0603 7.69909L29.5603 14.9718C29.8414 15.2446 29.9993 15.6144 29.9993 16C29.9993 16.3856 29.8414 16.7554 29.5603 17.0282L22.0603 24.3009C21.7767 24.5622 21.3991 24.7057 21.008 24.7008C20.6168 24.696 20.2431 24.5431 19.9665 24.2749C19.6899 24.0067 19.5323 23.6443 19.5273 23.265C19.5223 22.8857 19.6703 22.5195 19.9397 22.2445L24.8784 17.4545H10.5V26.9091C10.5 29.8227 13.6678 32 16.5 32H30.75C32.1419 31.9986 33.4764 31.4617 34.4607 30.5073C35.4449 29.5529 35.9985 28.2588 36 26.9091V5.09091C35.9985 3.74116 35.4449 2.44711 34.4607 1.49269C33.4764 0.53827 32.1419 0.00144384 30.75 0ZM1.5 14.5455C1.10218 14.5455 0.720645 14.6987 0.43934 14.9715C0.158036 15.2443 0 15.6142 0 16C0 16.3858 0.158036 16.7557 0.43934 17.0285C0.720645 17.3013 1.10218 17.4545 1.5 17.4545H10.5V14.5455H1.5Z" fill="#699BF7"/>
</svg>
