<svg width="26" height="26" viewBox="0 0 26 26" fill="none" xmlns="http://www.w3.org/2000/svg">
<path d="M11.7349 3.53027H3.38553C2.75285 3.53027 2.14608 3.78161 1.69871 4.22898C1.25133 4.67635 1 5.28312 1 5.9158V22.6145C1 23.2472 1.25133 23.854 1.69871 24.3013C2.14608 24.7487 2.75285 25 3.38553 25H20.0842C20.7169 25 21.3237 24.7487 21.7711 24.3013C22.2184 23.854 22.4698 23.2472 22.4698 22.6145V14.2652" stroke="#699BF7" stroke-width="2" stroke-linecap="round" stroke-linejoin="round"/>
<path d="M20.6806 1.74109C21.1551 1.26658 21.7987 1 22.4697 1C23.1408 1 23.7844 1.26658 24.2589 1.74109C24.7334 2.2156 25 2.85918 25 3.53024C25 4.2013 24.7334 4.84487 24.2589 5.31938L12.9276 16.6506L8.15656 17.8434L9.34932 13.0724L20.6806 1.74109Z" stroke="#699BF7" stroke-width="2" stroke-linecap="round" stroke-linejoin="round"/>
</svg>
